<svg xmlns="http://www.w3.org/2000/svg" width="510" height="430" viewBox="0 0 510 430">
<style>
text{font-family:Arial,Helvetica,sans-serif;fill:#1f2933}
.title{font-size:22px;font-weight:700}
.label{font-size:14px}
.tick{font-size:12px}
.value{font-size:13px;font-weight:700}
.legend{font-size:12px}
</style>
<rect width="510" height="430" fill="#ffffff" />
<text x="20" y="36" class="title">Retrieved Chunk Overlap</text>
<text x="215.0" y="58" class="tick" text-anchor="middle">kg_rag</text>
<text x="305.0" y="58" class="tick" text-anchor="middle">reranked_rag</text>
<text x="395.0" y="58" class="tick" text-anchor="middle">vector_rag</text>
<text x="20" y="132" class="label">kg_rag</text>
<rect x="170" y="80" width="90" height="90" fill="rgb(90,160,145)" />
<text x="215.0" y="132" class="value" text-anchor="middle">1.00</text>
<rect x="260" y="80" width="90" height="90" fill="rgb(205,222,215)" />
<text x="305.0" y="132" class="value" text-anchor="middle">0.23</text>
<rect x="350" y="80" width="90" height="90" fill="rgb(141,188,176)" />
<text x="395.0" y="132" class="value" text-anchor="middle">0.66</text>
<text x="20" y="222" class="label">reranked_rag</text>
<rect x="170" y="170" width="90" height="90" fill="rgb(205,222,215)" />
<text x="215.0" y="222" class="value" text-anchor="middle">0.23</text>
<rect x="260" y="170" width="90" height="90" fill="rgb(90,160,145)" />
<text x="305.0" y="222" class="value" text-anchor="middle">1.00</text>
<rect x="350" y="170" width="90" height="90" fill="rgb(197,218,210)" />
<text x="395.0" y="222" class="value" text-anchor="middle">0.29</text>
<text x="20" y="312" class="label">vector_rag</text>
<rect x="170" y="260" width="90" height="90" fill="rgb(141,188,176)" />
<text x="215.0" y="312" class="value" text-anchor="middle">0.66</text>
<rect x="260" y="260" width="90" height="90" fill="rgb(197,218,210)" />
<text x="305.0" y="312" class="value" text-anchor="middle">0.29</text>
<rect x="350" y="260" width="90" height="90" fill="rgb(90,160,145)" />
<text x="395.0" y="312" class="value" text-anchor="middle">1.00</text>
</svg>
